<?xml version="1.0" standalone="no"?>
<!DOCTYPE svg PUBLIC "-//W3C//DTD SVG 20010904//EN"
 "http://www.w3.org/TR/2001/REC-SVG-20010904/DTD/svg10.dtd">
<svg version="1.0" xmlns="http://www.w3.org/2000/svg"
 width="48.000000pt" height="48.000000pt" viewBox="0 0 48.000000 48.000000"
 preserveAspectRatio="xMidYMid meet">

<g transform="translate(0.000000,48.000000) scale(0.100000,-0.100000)"
fill="#000000" stroke="#4B0082" stroke-width="10">
<path d="M330 421 c-107 -36 -144 -58 -181 -105 -22 -28 -59 -124 -59 -153 0
-10 -14 -40 -30 -68 -16 -27 -30 -53 -30 -57 0 -19 17 -5 36 30 20 33 29 39
93 55 133 35 233 125 275 250 17 51 21 88 9 86 -5 -1 -55 -18 -113 -38z m77
-44 c-13 -30 -19 -34 -41 -30 -15 3 -26 1 -26 -6 0 -6 9 -11 20 -11 23 0 24
-4 8 -29 -9 -15 -19 -18 -50 -14 -25 4 -38 2 -38 -6 0 -6 14 -11 32 -11 l31 0
-23 -25 c-20 -21 -29 -24 -62 -19 -24 4 -38 3 -38 -4 0 -6 10 -12 23 -14 21
-3 20 -4 -8 -20 -40 -21 -105 -39 -105 -28 0 13 75 99 118 137 20 17 33 35 28
40 -4 4 -43 -29 -86 -74 -66 -69 -77 -78 -70 -53 16 57 55 114 95 141 43 29
198 81 203 68 2 -4 -3 -23 -11 -42z"/>
<path d="M303 153 c-26 -5 -47 -28 -38 -42 3 -6 25 -16 48 -22 41 -11 41 -12
17 -21 -14 -5 -78 -12 -142 -15 -69 -4 -118 -10 -118 -16 0 -13 224 -2 268 14
41 14 39 39 -3 51 -59 18 -61 20 -35 28 14 5 42 8 63 9 20 1 37 6 37 11 0 10
-53 11 -97 3z"/>
</g>
</svg>
